<svg width="40" height="30" viewBox="0 0 40 30" fill="none" xmlns="http://www.w3.org/2000/svg">
<rect x="0.625" y="0.625" width="38.75" height="28.75" rx="4.375" fill="white" style="fill:white;fill-opacity:1;"/>
<rect x="0.625" y="0.625" width="38.75" height="28.75" rx="4.375" stroke="black" style="stroke:black;stroke-opacity:1;" stroke-width="1.25"/>
<path d="M10.487 10.3619C10.8289 9.92797 11.0608 9.34535 10.9997 8.75C10.4993 8.77527 9.8887 9.08502 9.53519 9.51928C9.21778 9.89113 8.93684 10.4981 9.01006 11.0685C9.57175 11.118 10.1329 10.7836 10.487 10.3619ZM10.9933 11.1799C10.1776 11.1306 9.48403 11.6497 9.09447 11.6497C8.70473 11.6497 8.10821 11.2048 7.46304 11.2167C6.62331 11.2293 5.84414 11.7111 5.41798 12.4775C4.54152 14.0107 5.18669 16.2849 6.03901 17.5336C6.45294 18.1514 6.95175 18.8316 7.60905 18.8071C8.23008 18.7824 8.47349 18.399 9.22837 18.399C9.9827 18.399 10.202 18.8071 10.8594 18.7948C11.5411 18.7824 11.9673 18.1767 12.3812 17.5584C12.856 16.8541 13.0504 16.1742 13.0626 16.1368C13.0504 16.1245 11.7481 15.6174 11.736 14.097C11.7237 12.8239 12.7585 12.2183 12.8072 12.1808C12.2228 11.3036 11.3098 11.2048 10.9933 11.1799Z" fill="black" style="fill:black;fill-opacity:1;"/>
<path d="M19.1267 9.45759C20.8997 9.45759 22.1343 10.6979 22.1343 12.5037C22.1343 14.3159 20.8744 15.5627 19.0824 15.5627H17.1194V18.7307H15.7011V9.45759H19.1267ZM17.1194 14.3544H18.7468C19.9816 14.3544 20.6843 13.6798 20.6843 12.5101C20.6843 11.3406 19.9816 10.6722 18.7531 10.6722H17.1194V14.3544ZM22.4862 16.8094C22.4862 15.6205 23.379 14.9393 25.0252 14.8365L26.7918 14.7272V14.2131C26.7918 13.4612 26.3042 13.0499 25.4368 13.0499C24.7212 13.0499 24.202 13.4227 24.0944 13.9946H22.8153C22.8534 12.7929 23.9678 11.919 25.4748 11.919C27.0958 11.919 28.1532 12.7801 28.1532 14.1167V18.7307H26.8425V17.6191H26.8109C26.4373 18.3452 25.6141 18.8014 24.7212 18.8014C23.4043 18.8014 22.4862 18.0046 22.4862 16.8094ZM26.7918 16.2117V15.6911L25.2152 15.794C24.3287 15.8518 23.8666 16.1859 23.8666 16.7708C23.8666 17.3362 24.3478 17.7027 25.1012 17.7027C26.0636 17.7027 26.7918 17.0792 26.7918 16.2117ZM29.3582 21.2113V20.0997C29.4469 20.1124 29.6621 20.1252 29.776 20.1252C30.403 20.1252 30.7575 19.8555 30.9729 19.1614L31.0995 18.7501L28.6997 12.0025H30.1813L31.853 17.4776H31.8846L33.5562 12.0025H35L32.5115 19.0907C31.9416 20.7165 31.2894 21.25 29.909 21.25C29.8014 21.25 29.4531 21.2371 29.3582 21.2113Z" fill="black" style="fill:black;fill-opacity:1;"/>
</svg>
