<svg width="40" height="30" viewBox="0 0 40 30" fill="none" xmlns="http://www.w3.org/2000/svg">
<rect width="40" height="30" rx="5" fill="#E664A5" style="fill:#E664A5;fill:color(display-p3 0.9020 0.3922 0.6471);fill-opacity:1;"/>
<path d="M9.375 7.01551V22.9845C9.375 23.7518 9.99699 24.375 10.7636 24.375H20.2969C27.501 24.375 30.625 20.3361 30.625 14.9813C30.625 9.64718 27.501 5.625 20.2969 5.625H10.7623C9.99827 5.625 9.375 6.24687 9.375 7.01551Z" fill="white" style="fill:white;fill-opacity:1;"/>
<path d="M20.2947 23.0965H12.004C11.6517 23.0972 11.3135 22.9573 11.0635 22.7075C10.8135 22.4577 10.6722 22.1184 10.6705 21.7639V8.23607C10.6708 8.06022 10.7056 7.88617 10.7728 7.72384C10.84 7.56152 10.9383 7.4141 11.0621 7.29C11.186 7.1659 11.3329 7.06755 11.4945 7.00057C11.6561 6.93359 11.8292 6.89929 12.004 6.89963H20.2947C28.1578 6.89963 29.3327 11.9621 29.3327 14.98C29.3327 20.2151 26.1229 23.0965 20.2947 23.0965ZM12.004 7.34768C11.7691 7.34734 11.5437 7.44062 11.377 7.60712C11.2103 7.77361 11.1159 7.99976 11.1146 8.23607V21.7652C11.1146 22.2558 11.5126 22.6536 12.004 22.6536H20.2947C25.8362 22.6536 28.8886 19.9292 28.8886 14.9826C28.8886 8.33907 23.5044 7.34768 20.2947 7.34768H12.004Z" fill="black" style="fill:black;fill-opacity:1;"/>
<path d="M15.7534 9.54546V21.3429H20.8842C25.5453 21.3429 27.5648 18.7061 27.5648 14.9878C27.5648 11.4252 25.5453 8.65707 20.8842 8.65707H16.6416C16.4068 8.65673 16.1815 8.75005 16.015 8.91659C15.8485 9.08312 15.7544 9.30927 15.7534 9.54546Z" fill="#CC0066" style="fill:#CC0066;fill:color(display-p3 0.8000 0.0000 0.4000);fill-opacity:1;"/>
<path d="M25.5337 13.3951V15.692H26.9056V16.2135H24.9155V13.3938L25.5337 13.3951ZM23.4732 13.3951L24.5264 16.2135H23.884L23.6715 15.5877H22.617L22.3968 16.2135H21.771L22.8371 13.3938L23.4732 13.3951ZM23.509 15.123L23.1532 14.0891H23.1455L22.7795 15.123H23.509ZM21.3525 13.3951V13.9153H19.8654V14.5204H21.2296V15.0006H19.8654V15.692H21.3845V16.2135H19.2472V13.3938L21.3525 13.3951ZM17.5591 13.3951C17.7319 13.3938 17.9047 13.4222 18.066 13.4814C18.2234 13.5382 18.366 13.6304 18.4828 13.7508C18.5997 13.8713 18.6878 14.0169 18.7404 14.1766C18.8635 14.5591 18.8697 14.9699 18.7583 15.356C18.7105 15.521 18.6294 15.6744 18.5203 15.8066C18.411 15.9346 18.2745 16.0362 18.121 16.104C17.9436 16.1803 17.752 16.2176 17.5591 16.2135H16.3446V13.3938H17.5604L17.5591 13.3951ZM17.5156 15.692C17.6052 15.692 17.6922 15.6779 17.7767 15.6483C17.8615 15.6184 17.9382 15.569 18.0007 15.5041C18.0714 15.4293 18.1255 15.3402 18.1594 15.2427C18.2019 15.1154 18.2218 14.9816 18.2182 14.8474C18.2182 14.7187 18.2055 14.5899 18.1773 14.4625C18.1523 14.3557 18.1048 14.2555 18.0378 14.1689C17.972 14.0853 17.8855 14.0205 17.787 13.9809C17.6644 13.9343 17.5339 13.9125 17.403 13.9166H16.9615V15.692H17.5156Z" fill="white" style="fill:white;fill-opacity:1;"/>
<path d="M13.4344 16.8521C13.9783 16.8521 14.4185 17.2924 14.4185 17.8357V21.3429C13.3307 21.3429 12.4502 20.461 12.4502 19.373V17.8357C12.45 17.7059 12.4754 17.5772 12.525 17.4573C12.5746 17.3374 12.6473 17.2285 12.7389 17.1371C12.8306 17.0456 12.9393 16.9733 13.0589 16.9244C13.1785 16.8755 13.3066 16.8509 13.4357 16.8521H13.4344Z" fill="black" style="fill:black;fill-opacity:1;"/>
<path d="M13.4349 16.104C14.1523 16.104 14.7339 15.5218 14.7339 14.8037C14.7339 14.0855 14.1523 13.5033 13.4349 13.5033C12.7175 13.5033 12.1359 14.0855 12.1359 14.8037C12.1359 15.5218 12.7175 16.104 13.4349 16.104Z" fill="black" style="fill:black;fill-opacity:1;"/>
</svg>
